# xmcd CD database file
#
# Track frame offsets:
#	150
#	36698
#	59342
#	81686
#	116142
#	140422
#	171555
#	196748
#	214802
#	245880
#	273586
#	300746
#
# Disc length: 4217 seconds
#
# Revision: 0
# Processed by: cddbd v1.4PL0 Copyright (c) Steve Scherf et al.
# Submitted via: CDex 1.50Beta7
#
DISCID=c710770c
DTITLE=Various Artist - Ambient Ibiza [CD2)
DYEAR=2000
DGENRE=New Age
TTITLE0=Interpense - Du Bi Tru
TTITLE1=Letfield - Release the pressure
TTITLE2=Blame - Fifth sun
TTITLE3=Rainer - Nod to N20
TTITLE4=Superglue - P
TTITLE5=Phil Mason - Rain
TTITLE6=Fluff - Silent Life
TTITLE7=J.P. Goude - Ainsi de nous
TTITLE8=Extended Spirit - Bohemian sunset
TTITLE9=Richard Wahnfried - Pressure
TTITLE10=Los Olvidados - Cinematic sundown
TTITLE11=Jim Tenor - Theme sax
EXTD=YEAR: 2000
EXTT0=
EXTT1=
EXTT2=
EXTT3=
EXTT4=
EXTT5=
EXTT6=
EXTT7=
EXTT8=
EXTT9=
EXTT10=
EXTT11=
PLAYORDER=
